# xmcd CD database file
#
# Track frame offsets:
#	225
#	11510
#	21435
#	33148
#	41593
#	53300
#	64300
#	74523
#	85250
#	95965
#	106955
#	117645
#	130563
#	142788
#
# Disc length: 2051 seconds
#
# Revision: 3
# Processed by: cddbd v1.5.1PL2 Copyright (c) Steve Scherf et al.
# Submitted via: CDex 1.51
#
DISCID=bb08000e
DTITLE=Various Artist - 50's Hit Parade
DYEAR=1900
DGENRE=HitParade
TTITLE0=Bill Haley and The Comets - Shake Rattle And Roll
TTITLE1=Little Richard - Lucille
TTITLE2=Platters - Only You
TTITLE3=Clovers - Love Potion 9
TTITLE4=Platters - Smoke Gets In Your Eyes
TTITLE5=Lloyd Price - Personality
TTITLE6=Bobby Day - Over And Over
TTITLE7=Fats Domino - Ain't That A Shame
TTITLE8=Little Richard - Tutti Frutti
TTITLE9=Bobby Freeman - Do You Want To Dance
TTITLE10=Jerry Wallace - Primrose Lane
TTITLE11=Mickey And Sylvia - Love Is Strange
TTITLE12=Platters - My Prayer
TTITLE13=Fabian - Tiger
EXTD=
EXTT0=
EXTT1=
EXTT2=
EXTT3=
EXTT4=
EXTT5=
EXTT6=
EXTT7=
EXTT8=
EXTT9=
EXTT10=
EXTT11=
EXTT12=
EXTT13=
PLAYORDER=
